<mxfile host="Electron" modified="2024-02-19T09:53:41.432Z" agent="Mozilla/5.0 (Windows NT 10.0; Win64; x64) AppleWebKit/537.36 (KHTML, like Gecko) draw.io/23.1.5 Chrome/120.0.6099.109 Electron/28.1.0 Safari/537.36" etag="nSIB7lJqZBgmxEVzGzfP" version="23.1.5" type="device">
  <diagram name="Page-1" id="oRemVUX4n2SQTzHNuGoc">
    <mxGraphModel dx="1434" dy="836" grid="1" gridSize="10" guides="1" tooltips="1" connect="1" arrows="1" fold="1" page="1" pageScale="1" pageWidth="827" pageHeight="1169" math="0" shadow="0">
      <root>
        <mxCell id="0" />
        <mxCell id="1" parent="0" />
        <mxCell id="-4F4UnYQlGq6GfOBUqbg-1" value="" style="strokeWidth=1;shadow=0;dashed=0;align=center;html=1;shape=mxgraph.mockup.containers.browserWindow;rSize=0;strokeColor=default;strokeColor2=#008cff;strokeColor3=#c4c4c4;mainText=,;recursiveResize=0;" vertex="1" parent="1">
          <mxGeometry width="830" height="1170" as="geometry" />
        </mxCell>
        <mxCell id="-4F4UnYQlGq6GfOBUqbg-2" value="Page 1" style="strokeWidth=1;shadow=0;dashed=0;align=center;html=1;shape=mxgraph.mockup.containers.anchor;fontSize=17;fontColor=#666666;align=left;whiteSpace=wrap;" vertex="1" parent="-4F4UnYQlGq6GfOBUqbg-1">
          <mxGeometry x="60" y="12" width="110" height="26" as="geometry" />
        </mxCell>
        <mxCell id="-4F4UnYQlGq6GfOBUqbg-3" value="https://www.draw.io" style="strokeWidth=1;shadow=0;dashed=0;align=center;html=1;shape=mxgraph.mockup.containers.anchor;rSize=0;fontSize=17;fontColor=#666666;align=left;" vertex="1" parent="-4F4UnYQlGq6GfOBUqbg-1">
          <mxGeometry x="130" y="60" width="250" height="26" as="geometry" />
        </mxCell>
        <mxCell id="-4F4UnYQlGq6GfOBUqbg-8" value="Search" style="strokeWidth=1;shadow=0;dashed=0;align=center;html=1;shape=mxgraph.mockup.forms.searchBox;mainText=;strokeColor2=#008cff;fontSize=17;align=left;spacingLeft=3;whiteSpace=wrap;" vertex="1" parent="-4F4UnYQlGq6GfOBUqbg-1">
          <mxGeometry x="560" y="132.5" width="190" height="30" as="geometry" />
        </mxCell>
        <mxCell id="-4F4UnYQlGq6GfOBUqbg-9" value="&lt;font style=&quot;font-size: 18px;&quot;&gt;Event4U&lt;/font&gt;" style="text;html=1;align=center;verticalAlign=middle;whiteSpace=wrap;rounded=0;strokeWidth=6;fillColor=#0050ef;fontColor=#ffffff;strokeColor=#001DBC;" vertex="1" parent="-4F4UnYQlGq6GfOBUqbg-1">
          <mxGeometry x="10" y="130" width="120" height="40" as="geometry" />
        </mxCell>
        <mxCell id="-4F4UnYQlGq6GfOBUqbg-16" value="Sign in" style="strokeWidth=1;shadow=0;dashed=0;align=center;html=1;shape=mxgraph.mockup.buttons.button;strokeColor=none;fontColor=#ffffff;mainText=;buttonStyle=round;fontSize=17;fontStyle=1;fillColor=none;whiteSpace=wrap;" vertex="1" parent="-4F4UnYQlGq6GfOBUqbg-1">
          <mxGeometry x="750" y="137.5" width="70" height="25" as="geometry" />
        </mxCell>
        <mxCell id="-4F4UnYQlGq6GfOBUqbg-26" value="&lt;font style=&quot;font-size: 17px;&quot;&gt;Events&lt;/font&gt;" style="text;html=1;align=center;verticalAlign=middle;whiteSpace=wrap;rounded=0;" vertex="1" parent="-4F4UnYQlGq6GfOBUqbg-1">
          <mxGeometry x="20" y="240" width="80" height="50" as="geometry" />
        </mxCell>
      </root>
    </mxGraphModel>
  </diagram>
</mxfile>
